<svg width="785" height="86" viewBox="0 0 785 86" fill="none" xmlns="http://www.w3.org/2000/svg">
<path d="M0.528 84V1.56799H20.88L43.28 47.264L65.552 1.56799H85.776V84H65.168V36.64L48.912 69.92H37.52L21.136 36.64V84H0.528ZM137.306 85.28C123.909 85.28 113.711 81.8667 106.714 75.04C99.7167 68.2133 96.218 57.5893 96.218 43.168C96.218 27.8933 99.7167 16.928 106.714 10.272C113.711 3.61599 123.909 0.287994 137.306 0.287994C150.703 0.287994 160.901 3.61599 167.898 10.272C174.895 16.928 178.394 27.8933 178.394 43.168C178.394 57.5893 174.895 68.2133 167.898 75.04C160.901 81.8667 150.703 85.28 137.306 85.28ZM137.306 67.744C144.218 67.744 149.253 65.7813 152.41 61.856C155.653 57.8453 157.274 51.616 157.274 43.168C157.274 33.952 155.653 27.4667 152.41 23.712C149.253 19.872 144.218 17.952 137.306 17.952C130.309 17.952 125.189 19.872 121.946 23.712C118.789 27.4667 117.21 33.952 117.21 43.168C117.21 51.616 118.789 57.8453 121.946 61.856C125.189 65.7813 130.309 67.744 137.306 67.744ZM188.903 84V1.56799H232.423C240.7 1.56799 246.93 3.53066 251.111 7.45599C255.378 11.3813 257.511 16.928 257.511 24.096C257.511 28.448 256.658 32.1173 254.951 35.104C253.33 38.0053 251.154 40.2667 248.423 41.888C252.178 43.2533 255.122 45.2587 257.255 47.904C259.388 50.5493 260.455 54.5173 260.455 59.808C260.455 67.6587 258.151 73.6747 253.543 77.856C248.935 81.952 242.322 84 233.703 84H188.903ZM209.511 35.104H226.279C229.863 35.104 232.466 34.2933 234.087 32.672C235.708 31.0507 236.519 28.7893 236.519 25.888C236.519 22.7307 235.708 20.384 234.087 18.848C232.466 17.2267 229.522 16.416 225.255 16.416H209.511V35.104ZM209.511 69.28H228.327C232.082 69.28 234.855 68.512 236.647 66.976C238.524 65.44 239.463 62.7093 239.463 58.784C239.463 55.6267 238.567 53.28 236.775 51.744C234.983 50.1227 231.911 49.312 227.559 49.312H209.511V69.28ZM270.903 84V1.56799H291.511V84H270.903ZM304.528 84V1.56799H325.136V68.128H364.048V84H304.528ZM372.028 84V1.56799H432.828V17.44H392.636V34.72H428.092V50.848H392.636V68.128H432.828V84H372.028ZM440.093 84V68.896H456.605V84H440.093ZM493.393 85.28C487.932 85.28 482.812 84.8533 478.033 84C473.34 83.232 469.286 82.08 465.873 80.544V63.008C469.628 64.6293 473.766 65.952 478.289 66.976C482.897 68 487.249 68.512 491.345 68.512C496.465 68.512 500.262 68.0427 502.737 67.104C505.297 66.1653 506.577 64.1173 506.577 60.96C506.577 58.8267 505.937 57.12 504.657 55.84C503.462 54.56 501.457 53.4507 498.641 52.512C495.91 51.488 492.156 50.2933 487.377 48.928C481.745 47.2213 477.265 45.344 473.937 43.296C470.609 41.1627 468.22 38.6027 466.769 35.616C465.318 32.6293 464.593 28.96 464.593 24.608C464.593 16.7573 467.409 10.7413 473.041 6.56C478.673 2.37866 486.993 0.287994 498.001 0.287994C502.78 0.287994 507.43 0.671995 511.953 1.43999C516.476 2.12266 520.145 2.93333 522.961 3.87199V21.536C519.292 20.0853 515.58 19.0187 511.825 18.336C508.156 17.6533 504.572 17.312 501.073 17.312C496.465 17.312 492.71 17.7387 489.809 18.592C486.993 19.4453 485.585 21.408 485.585 24.48C485.585 26.272 486.097 27.7227 487.121 28.832C488.145 29.856 489.894 30.7947 492.369 31.648C494.929 32.5013 498.385 33.5253 502.737 34.72C509.478 36.512 514.641 38.688 518.225 41.248C521.809 43.7227 524.284 46.624 525.649 49.952C527.014 53.1947 527.697 56.864 527.697 60.96C527.697 68.2133 524.881 74.1013 519.249 78.624C513.617 83.0613 504.998 85.28 493.393 85.28ZM538.153 84V1.56799H558.761V34.208H591.017V1.56799H611.625V84H591.017V51.36H558.761V84H538.153ZM663.181 85.28C649.784 85.28 639.586 81.8667 632.589 75.04C625.592 68.2133 622.093 57.5893 622.093 43.168C622.093 27.8933 625.592 16.928 632.589 10.272C639.586 3.61599 649.784 0.287994 663.181 0.287994C676.578 0.287994 686.776 3.61599 693.773 10.272C700.77 16.928 704.269 27.8933 704.269 43.168C704.269 57.5893 700.77 68.2133 693.773 75.04C686.776 81.8667 676.578 85.28 663.181 85.28ZM663.181 67.744C670.093 67.744 675.128 65.7813 678.285 61.856C681.528 57.8453 683.149 51.616 683.149 43.168C683.149 33.952 681.528 27.4667 678.285 23.712C675.128 19.872 670.093 17.952 663.181 17.952C656.184 17.952 651.064 19.872 647.821 23.712C644.664 27.4667 643.085 33.952 643.085 43.168C643.085 51.616 644.664 57.8453 647.821 61.856C651.064 65.7813 656.184 67.744 663.181 67.744ZM714.778 84V1.56799H755.354C761.925 1.56799 767.343 2.89066 771.61 5.536C775.877 8.096 779.034 11.5947 781.082 16.032C783.215 20.4693 784.282 25.4613 784.282 31.008C784.282 36.64 783.087 41.632 780.698 45.984C778.309 50.336 774.895 53.7493 770.458 56.224C766.106 58.6133 760.901 59.808 754.842 59.808H735.386V84H714.778ZM735.386 43.936H750.234C754.586 43.936 757.829 42.7413 759.962 40.352C762.181 37.9627 763.29 34.8053 763.29 30.88C763.29 26.6133 762.266 23.328 760.218 21.024C758.255 18.6347 755.141 17.44 750.874 17.44H735.386V43.936Z" fill="#F6416C"/>
</svg>
