<svg width="789" height="89" viewBox="0 0 789 89" fill="none" xmlns="http://www.w3.org/2000/svg">
<path d="M38.25 87L17.25 17.4375V87H0.5V1.6875H31.625L46.5625 52.75L62.3125 1.6875H93.5V87H73.375V17.4375L51.9375 87H38.25ZM142.75 88.3125C131.25 88.3125 122.354 84 116.062 75.375C109.771 66.75 106.625 56.3125 106.625 44.0625C106.625 31.6042 109.812 21.2083 116.188 12.875C122.562 4.54167 131.646 0.375 143.438 0.375C155.354 0.375 164.333 4.83333 170.375 13.75C176.458 22.625 179.5 32.7917 179.5 44.25C179.5 56.625 176.375 67.0625 170.125 75.5625C163.875 84.0625 154.75 88.3125 142.75 88.3125ZM143.312 16.6875C132.812 16.6875 127.562 25.8958 127.562 44.3125C127.562 62.7708 132.812 72 143.312 72C153.479 72 158.562 62.7917 158.562 44.375C158.562 25.9167 153.479 16.6875 143.312 16.6875ZM192.562 1.6875H232.312C239.438 1.6875 244.792 2.5625 248.375 4.3125C251.958 6.0625 254.917 8.5625 257.25 11.8125C259.583 15.0625 260.75 19.0208 260.75 23.6875C260.75 33.1458 255.625 39.4583 245.375 42.625C251.292 43.9583 255.729 46.6042 258.688 50.5625C261.646 54.5208 263.125 58.8333 263.125 63.5C263.125 69.875 260.708 75.3958 255.875 80.0625C251.042 84.6875 243.188 87 232.312 87H192.562V1.6875ZM212.5 16.75V35.4375H227.625C233.167 35.4375 236.646 34.3542 238.062 32.1875C239.521 29.9792 240.25 27.875 240.25 25.875C240.25 23.7083 239.646 21.8542 238.438 20.3125C237.271 18.7292 235.979 17.75 234.562 17.375C233.146 16.9583 230.354 16.75 226.188 16.75H212.5ZM212.5 50.625V71.1875H227.875C233.125 71.1875 236.833 70.2708 239 68.4375C241.167 66.6042 242.25 64.0417 242.25 60.75C242.25 58 241.208 55.625 239.125 53.625C237.042 51.625 233.583 50.625 228.75 50.625H212.5ZM295.875 1.6875V87H275.938V1.6875H295.875ZM333.312 70.125H367.25V87H313.062V1.6875H333.312V70.125ZM438.5 17.9375H397.812V35.4375H429.812V51.5H397.812V70.125H438.5V87H377.5V1.6875H438.5V17.9375ZM468.125 87H448.812V67.6875H468.125V87ZM542.5 20.4375L525.5 26.125C523.208 19.375 518.354 16 510.938 16C503.021 16 499.062 18.5625 499.062 23.6875C499.062 25.7292 499.792 27.4583 501.25 28.875C502.75 30.2917 506.104 31.5208 511.312 32.5625C520.021 34.3125 526.396 36.0833 530.438 37.875C534.479 39.6667 537.875 42.5625 540.625 46.5625C543.417 50.5208 544.812 54.9583 544.812 59.875C544.812 67.5833 541.833 74.25 535.875 79.875C529.958 85.5 521.167 88.3125 509.5 88.3125C500.75 88.3125 493.292 86.3333 487.125 82.375C481 78.375 476.958 72.4583 475 64.625L493.5 60.4375C495.583 68.3958 501.375 72.375 510.875 72.375C515.458 72.375 518.875 71.5 521.125 69.75C523.375 67.9583 524.5 65.8333 524.5 63.375C524.5 60.875 523.479 58.9375 521.438 57.5625C519.396 56.1875 515.458 54.8958 509.625 53.6875C498.75 51.4375 491 48.375 486.375 44.5C481.75 40.5833 479.438 34.875 479.438 27.375C479.438 19.7917 482.188 13.3958 487.688 8.1875C493.229 2.97917 500.729 0.375 510.188 0.375C526.938 0.375 537.708 7.0625 542.5 20.4375ZM623.875 1.6875V87H604.25V51.8125H577.562V87H557.938V1.6875H577.562V34.9375H604.25V1.6875H623.875ZM673 88.3125C661.5 88.3125 652.604 84 646.312 75.375C640.021 66.75 636.875 56.3125 636.875 44.0625C636.875 31.6042 640.062 21.2083 646.438 12.875C652.812 4.54167 661.896 0.375 673.688 0.375C685.604 0.375 694.583 4.83333 700.625 13.75C706.708 22.625 709.75 32.7917 709.75 44.25C709.75 56.625 706.625 67.0625 700.375 75.5625C694.125 84.0625 685 88.3125 673 88.3125ZM673.562 16.6875C663.062 16.6875 657.812 25.8958 657.812 44.3125C657.812 62.7708 663.062 72 673.562 72C683.729 72 688.812 62.7917 688.812 44.375C688.812 25.9167 683.729 16.6875 673.562 16.6875ZM743.062 55.3125V87H722.75V1.6875H756.375C763.875 1.6875 769.604 2.5 773.562 4.125C777.562 5.70833 781.125 8.5625 784.25 12.6875C787.375 16.8125 788.938 21.875 788.938 27.875C788.938 32.0833 788.104 36.1875 786.438 40.1875C784.771 44.1875 782.417 47.3333 779.375 49.625C776.333 51.9167 773.375 53.4375 770.5 54.1875C767.667 54.9375 763.208 55.3125 757.125 55.3125H743.062ZM742.375 39.8125H755.375C760.333 39.8125 763.812 38.6667 765.812 36.375C767.812 34.0833 768.812 31.4583 768.812 28.5C768.812 25.0417 767.688 22.2917 765.438 20.25C763.229 18.2083 759.854 17.1875 755.312 17.1875H742.375V39.8125Z" fill="#F6416C"/>
</svg>
